{"title":"The.Dr.Oz.Show.2018.01.02-TrumpSux","magnet":"magnet:?xt=urn:btih:c8a46d1b3f3622bb147e09e4bf4bc3964e23b6da&dn=The.Dr.Oz.Show.2018.01.02-TrumpSux&tr=udp%3A%2F%2Ftracker.leechers-paradise.org%3A6969&tr=udp%3A%2F%2Fzer0day.ch%3A1337&tr=udp%3A%2F%2Fopen.demonii.com%3A1337&tr=udp%3A%2F%2Ftracker.coppersurfer.tk%3A6969&tr=udp%3A%2F%2Fexodus.desync.com%3A6969","uploader":"Dbaum2","categoryP":"video","categoryS":"tv_shows","size":"455690048","seeders":"5","leechers":"1","description":" <a href=\"http://preview.ibb.co/kVFZSG/screens.jpg\" rel=\"nofollow\" target=\"_NEW\">http://preview.ibb.co/kVFZSG/screens.jpg</a>\r\n\r\nGeneral\r\nComplete name : The.Dr.Oz.Show.2018.01.02.Corey.Feldman.On.the.Shocking.Aftermath.of.Speaking.Out.About.Pedophilia.in.Hollywood..HDTV.x264-TrumpSux.mp4\r\nFormat : MPEG-4\r\nFormat profile : Base Media / Version 2\r\nCodec ID : mp42\r\nFile size : 435 MiB\r\nDuration : 41mn 59s\r\nOverall bit rate mode : Variable\r\nOverall bit rate : 1 447 Kbps\r\nEncoded date : UTC 2018-01-02 23:05:25\r\nTagged date : UTC 2018-01-02 23:05:25\r\n\r\nVideo\r\nID : 2\r\nFormat : AVC\r\nFormat/Info : Advanced Video Codec\r\nFormat profile : <a href=\"/cdn-cgi/l/email-protection\" class=\"__cf_email__\" data-cfemail=\"430b2a242b030f706d72\">[email&#xA0;protected]</a>\r\nFormat settings, CABAC : Yes\r\nFormat settings, ReFrames : 11 frames\r\nCodec ID : avc1\r\nCodec ID/Info : Advanced Video Coding\r\nDuration : 41mn 59s\r\nBit rate mode : Variable\r\nBit rate : 1 350 Kbps\r\nMaximum bit rate : 9 800 Kbps\r\nWidth : 852 pixels\r\nHeight : 480 pixels\r\nDisplay aspect ratio : 16:9\r\nFrame rate mode : Constant\r\nFrame rate : 29.970 fps\r\nStandard : Component\r\nColor space : YUV\r\nChroma subsampling : 4:2:0\r\nBit depth : 8 bits\r\nScan type : Progressive\r\nBits/(Pixel*Frame) : 0.110\r\nStream size : 405 MiB (93%)\r\nEncoded date : UTC 2018-01-02 23:05:25\r\nTagged date : UTC 2018-01-02 23:05:25\r\nColor range : Limited\r\nColor primaries : BT.709\r\nTransfer characteristics : BT.709\r\nMatrix coefficients : BT.709\r\n\r\nAudio\r\nID : 1\r\nFormat : AAC\r\nFormat/Info : Advanced Audio Codec\r\nFormat profile : LC\r\nCodec ID : 40\r\nDuration : 41mn 59s\r\nBit rate mode : Variable\r\nBit rate : 93.4 Kbps\r\nMaximum bit rate : 576 Kbps\r\nChannel(s) : 2 channels\r\nChannel positions : Front: L R\r\nSampling rate : 48.0 KHz\r\nCompression mode : Lossy\r\nStream size : 28.0 MiB (6%)\r\nEncoded date : UTC 2018-01-02 23:05:25\r\nTagged date : UTC 2018-01-02 23:05:25","last_updated":"2018-01-03T12:06:56.264Z","parsed":{"xt":"urn:btih:c8a46d1b3f3622bb147e09e4bf4bc3964e23b6da","dn":"The.Dr.Oz.Show.2018.01.02-TrumpSux","tr":["udp://exodus.desync.com:6969","udp://open.demonii.com:1337","udp://tracker.coppersurfer.tk:6969","udp://tracker.leechers-paradise.org:6969","udp://zer0day.ch:1337"],"infoHash":"c8a46d1b3f3622bb147e09e4bf4bc3964e23b6da","infoHashBuffer":{"type":"Buffer","data":[200,164,109,27,63,54,34,187,20,126,9,228,191,75,195,150,78,35,182,218]},"name":"The.Dr.Oz.Show.2018.01.02-TrumpSux","announce":["udp://exodus.desync.com:6969","udp://open.demonii.com:1337","udp://tracker.coppersurfer.tk:6969","udp://tracker.leechers-paradise.org:6969","udp://zer0day.ch:1337"],"urlList":[]}}